<mxfile host="app.diagrams.net" agent="Mozilla/5.0 (X11; Linux x86_64; rv:139.0) Gecko/20100101 Firefox/139.0" version="27.1.6">
  <diagram name="Page-1" id="-aZczGZsGDfx1RvTxOKy">
    <mxGraphModel dx="1143" dy="849" grid="1" gridSize="10" guides="1" tooltips="1" connect="1" arrows="1" fold="1" page="1" pageScale="1" pageWidth="1169" pageHeight="700" math="0" shadow="0">
      <root>
        <mxCell id="0" />
        <mxCell id="1" parent="0" />
        <mxCell id="L9Lsdy9XiuTwqarGt-ca-1" value="" style="rounded=1;whiteSpace=wrap;html=1;fillColor=none;strokeWidth=2;fontColor=#ffffff;strokeColor=#005700;" vertex="1" parent="1">
          <mxGeometry x="400" y="29" width="400" height="611" as="geometry" />
        </mxCell>
        <mxCell id="L9Lsdy9XiuTwqarGt-ca-3" value="&lt;font style=&quot;font-size: 15px;&quot;&gt;&lt;span&gt;bitwarden&lt;/span&gt;&lt;/font&gt;" style="aspect=fixed;sketch=0;html=1;dashed=0;whitespace=wrap;verticalLabelPosition=top;verticalAlign=bottom;fillColor=none;strokeColor=#005700;points=[[0.005,0.63,0],[0.1,0.2,0],[0.9,0.2,0],[0.5,0,0],[0.995,0.63,0],[0.72,0.99,0],[0.5,1,0],[0.28,0.99,0]];shape=mxgraph.kubernetes.icon2;kubernetesLabel=1;prIcon=pod;labelPosition=center;align=center;fontColor=light-dark(#000000,#006600);" vertex="1" parent="1">
          <mxGeometry x="575" y="30" width="50" height="48" as="geometry" />
        </mxCell>
        <mxCell id="L9Lsdy9XiuTwqarGt-ca-4" value="" style="rounded=1;whiteSpace=wrap;html=1;fillColor=none;fontColor=#ffffff;strokeColor=#001DBC;" vertex="1" parent="1">
          <mxGeometry x="530" y="119" width="250" height="200" as="geometry" />
        </mxCell>
        <mxCell id="L9Lsdy9XiuTwqarGt-ca-5" value="bitwarden" style="aspect=fixed;sketch=0;html=1;dashed=0;whitespace=wrap;verticalLabelPosition=top;verticalAlign=bottom;fillColor=#2875E2;strokeColor=#ffffff;points=[[0.005,0.63,0],[0.1,0.2,0],[0.9,0.2,0],[0.5,0,0],[0.995,0.63,0],[0.72,0.99,0],[0.5,1,0],[0.28,0.99,0]];shape=mxgraph.kubernetes.icon2;prIcon=pod;labelPosition=center;align=center;fontSize=16;fontColor=light-dark(#000000, #62a0ea);" vertex="1" parent="1">
          <mxGeometry x="704" y="119" width="50" height="48" as="geometry" />
        </mxCell>
        <mxCell id="L9Lsdy9XiuTwqarGt-ca-6" value="" style="rounded=1;whiteSpace=wrap;html=1;fillColor=none;fontColor=#ffffff;strokeColor=light-dark(#000000,#FF8000);" vertex="1" parent="1">
          <mxGeometry x="490" y="378" width="290" height="240" as="geometry" />
        </mxCell>
        <mxCell id="L9Lsdy9XiuTwqarGt-ca-7" value="bitwarden-cli" style="aspect=fixed;sketch=0;html=1;dashed=0;whitespace=wrap;verticalLabelPosition=top;verticalAlign=bottom;fillColor=light-dark(#000000,#FF8000);strokeColor=#ffffff;points=[[0.005,0.63,0],[0.1,0.2,0],[0.9,0.2,0],[0.5,0,0],[0.995,0.63,0],[0.72,0.99,0],[0.5,1,0],[0.28,0.99,0]];shape=mxgraph.kubernetes.icon2;prIcon=pod;labelPosition=center;align=center;fontSize=16;fontColor=light-dark(#000000,#FF8000);" vertex="1" parent="1">
          <mxGeometry x="704" y="382" width="50" height="48" as="geometry" />
        </mxCell>
        <mxCell id="L9Lsdy9XiuTwqarGt-ca-8" value="&lt;font style=&quot;font-size: 22px;&quot;&gt;0.0.0.0&lt;font&gt;:80&lt;/font&gt;&lt;/font&gt;" style="text;html=1;align=center;verticalAlign=middle;whiteSpace=wrap;rounded=0;" vertex="1" parent="1">
          <mxGeometry x="554" y="249" width="60" height="30" as="geometry" />
        </mxCell>
        <mxCell id="L9Lsdy9XiuTwqarGt-ca-9" value="&lt;font style=&quot;font-size: 22px;&quot;&gt;0.0.0.0&lt;font&gt;:80&lt;/font&gt;87&amp;nbsp;/&lt;/font&gt;" style="text;html=1;align=center;verticalAlign=middle;whiteSpace=wrap;rounded=0;" vertex="1" parent="1">
          <mxGeometry x="530" y="483" width="60" height="30" as="geometry" />
        </mxCell>
        <mxCell id="L9Lsdy9XiuTwqarGt-ca-17" value="" style="shape=flexArrow;endArrow=classic;html=1;rounded=0;entryX=1;entryY=0.25;entryDx=0;entryDy=0;exitX=0;exitY=0.5;exitDx=0;exitDy=0;" edge="1" parent="1" target="L9Lsdy9XiuTwqarGt-ca-6">
          <mxGeometry width="50" height="50" relative="1" as="geometry">
            <mxPoint x="840" y="439" as="sourcePoint" />
            <mxPoint x="780" y="599" as="targetPoint" />
          </mxGeometry>
        </mxCell>
        <mxCell id="L9Lsdy9XiuTwqarGt-ca-18" value="" style="aspect=fixed;sketch=0;html=1;dashed=0;whitespace=wrap;verticalLabelPosition=bottom;verticalAlign=top;fillColor=#2875E2;strokeColor=#ffffff;points=[[0.005,0.63,0],[0.1,0.2,0],[0.9,0.2,0],[0.5,0,0],[0.995,0.63,0],[0.72,0.99,0],[0.5,1,0],[0.28,0.99,0]];shape=mxgraph.kubernetes.icon2;kubernetesLabel=1;prIcon=svc" vertex="1" parent="1">
          <mxGeometry x="120" y="225.6" width="80" height="76.8" as="geometry" />
        </mxCell>
        <mxCell id="L9Lsdy9XiuTwqarGt-ca-20" value="&lt;div&gt;&lt;br&gt;&lt;/div&gt;&lt;div&gt;&lt;br&gt;&lt;/div&gt;&lt;div&gt;&lt;br&gt;&lt;/div&gt;&lt;div&gt;&lt;br&gt;&lt;/div&gt;&lt;div&gt;&lt;br&gt;&lt;/div&gt;&lt;div&gt;&lt;span&gt;john:password&lt;/span&gt;&lt;/div&gt;" style="shape=actor;whiteSpace=wrap;html=1;fontColor=light-dark(#000000, #62a0ea);fontSize=17;fillColor=light-dark(default, #62a0ea);" vertex="1" parent="1">
          <mxGeometry x="627" y="119" width="70" height="70" as="geometry" />
        </mxCell>
        <mxCell id="L9Lsdy9XiuTwqarGt-ca-21" value="" style="shape=flexArrow;endArrow=classic;html=1;rounded=0;exitX=0.241;exitY=0.3;exitDx=0;exitDy=0;exitPerimeter=0;" edge="1" parent="1" source="L9Lsdy9XiuTwqarGt-ca-6">
          <mxGeometry width="50" height="50" relative="1" as="geometry">
            <mxPoint x="470" y="330" as="sourcePoint" />
            <mxPoint x="520" y="280" as="targetPoint" />
            <Array as="points">
              <mxPoint x="460" y="420" />
              <mxPoint x="460" y="280" />
            </Array>
          </mxGeometry>
        </mxCell>
        <mxCell id="L9Lsdy9XiuTwqarGt-ca-22" value="&lt;font style=&quot;font-size: 22px;&quot;&gt;&lt;font&gt;127.0.0.1:80&lt;/font&gt;88&lt;/font&gt;" style="text;html=1;align=center;verticalAlign=middle;whiteSpace=wrap;rounded=0;" vertex="1" parent="1">
          <mxGeometry x="610" y="440" width="60" height="30" as="geometry" />
        </mxCell>
        <mxCell id="L9Lsdy9XiuTwqarGt-ca-23" value="" style="shape=flexArrow;endArrow=classic;html=1;rounded=0;exitX=0.5;exitY=1;exitDx=0;exitDy=0;exitPerimeter=0;entryX=0;entryY=0.5;entryDx=0;entryDy=0;endSize=10;startSize=7;" edge="1" parent="1" source="L9Lsdy9XiuTwqarGt-ca-18" target="L9Lsdy9XiuTwqarGt-ca-6">
          <mxGeometry width="50" height="50" relative="1" as="geometry">
            <mxPoint x="170" y="350" as="sourcePoint" />
            <mxPoint x="220" y="300" as="targetPoint" />
            <Array as="points">
              <mxPoint x="160" y="500" />
            </Array>
          </mxGeometry>
        </mxCell>
        <mxCell id="L9Lsdy9XiuTwqarGt-ca-24" value="&lt;font style=&quot;font-size: 14px;&quot;&gt;Basic Auth: SVC_USER:SVC_PASSWORD&lt;/font&gt;" style="edgeLabel;html=1;align=center;verticalAlign=middle;resizable=0;points=[];" vertex="1" connectable="0" parent="L9Lsdy9XiuTwqarGt-ca-23">
          <mxGeometry x="0.1284" y="-2" relative="1" as="geometry">
            <mxPoint x="1" y="18" as="offset" />
          </mxGeometry>
        </mxCell>
        <mxCell id="L9Lsdy9XiuTwqarGt-ca-25" value="&lt;font style=&quot;font-size: 14px;&quot;&gt;Basic Auth: BW_USER:BW_PASSWORD&lt;/font&gt;" style="edgeLabel;html=1;align=center;verticalAlign=middle;resizable=0;points=[];rotation=-90;" vertex="1" connectable="0" parent="1">
          <mxGeometry x="443" y="302" as="geometry" />
        </mxCell>
        <mxCell id="L9Lsdy9XiuTwqarGt-ca-26" value="&lt;font style=&quot;font-size: 22px; color: rgba(0, 0, 0, 0);&quot;&gt;0.0.0.0&lt;font&gt;:80&lt;/font&gt;87&lt;/font&gt;&lt;font style=&quot;font-size: 22px; white-space: pre; color: rgba(0, 0, 0, 0);&quot;&gt;&lt;span style=&quot;&quot;&gt;/sync?force=true&lt;/span&gt;&lt;/font&gt;" style="text;html=1;align=center;verticalAlign=middle;whiteSpace=wrap;rounded=0;fontColor=light-dark(default, #ffffff);" vertex="1" parent="1">
          <mxGeometry x="520" y="564" width="230" height="30" as="geometry" />
        </mxCell>
        <mxCell id="L9Lsdy9XiuTwqarGt-ca-27" value="" style="shape=flexArrow;endArrow=classic;html=1;rounded=0;entryX=0.007;entryY=0.839;entryDx=0;entryDy=0;entryPerimeter=0;" edge="1" parent="1" target="L9Lsdy9XiuTwqarGt-ca-6">
          <mxGeometry width="50" height="50" relative="1" as="geometry">
            <mxPoint x="250" y="580" as="sourcePoint" />
            <mxPoint x="280" y="580" as="targetPoint" />
          </mxGeometry>
        </mxCell>
        <mxCell id="L9Lsdy9XiuTwqarGt-ca-28" value="&lt;h1 style=&quot;margin-top: 0px;&quot;&gt;livenessProbe&lt;/h1&gt;&lt;p&gt;&lt;font style=&quot;font-size: 15px;&quot;&gt;Refreshes bitwarden-cli cache&lt;/font&gt;&lt;/p&gt;" style="text;html=1;whiteSpace=wrap;overflow=hidden;rounded=0;" vertex="1" parent="1">
          <mxGeometry x="80" y="560" width="180" height="120" as="geometry" />
        </mxCell>
        <mxCell id="L9Lsdy9XiuTwqarGt-ca-36" value="&lt;font style=&quot;font-size: 15px;&quot;&gt;bitwarden-cli&lt;/font&gt;" style="swimlane;fontStyle=0;childLayout=stackLayout;horizontal=1;startSize=30;horizontalStack=0;resizeParent=1;resizeParentMax=0;resizeLast=0;collapsible=1;marginBottom=0;whiteSpace=wrap;html=1;" vertex="1" parent="1">
          <mxGeometry x="850" y="393" width="270" height="180" as="geometry" />
        </mxCell>
        <mxCell id="L9Lsdy9XiuTwqarGt-ca-37" value="&lt;font style=&quot;font-size: 15px; color: light-dark(transparent, rgb(0, 0, 0));&quot;&gt;BW_HOST: 127.0.0.1:80&lt;/font&gt;" style="text;strokeColor=#001DBC;fillColor=#0050ef;align=left;verticalAlign=middle;spacingLeft=4;spacingRight=4;overflow=hidden;points=[[0,0.5],[1,0.5]];portConstraint=eastwest;rotatable=0;whiteSpace=wrap;html=1;fontColor=#ffffff;" vertex="1" parent="L9Lsdy9XiuTwqarGt-ca-36">
          <mxGeometry y="30" width="270" height="30" as="geometry" />
        </mxCell>
        <mxCell id="L9Lsdy9XiuTwqarGt-ca-42" value="&lt;font style=&quot;font-size: 15px;&quot;&gt;BW_USER: john&lt;/font&gt;" style="text;strokeColor=#001DBC;fillColor=#0050ef;align=left;verticalAlign=middle;spacingLeft=4;spacingRight=4;overflow=hidden;points=[[0,0.5],[1,0.5]];portConstraint=eastwest;rotatable=0;whiteSpace=wrap;html=1;fontColor=#ffffff;" vertex="1" parent="L9Lsdy9XiuTwqarGt-ca-36">
          <mxGeometry y="60" width="270" height="30" as="geometry" />
        </mxCell>
        <mxCell id="L9Lsdy9XiuTwqarGt-ca-38" value="&lt;font style=&quot;font-size: 15px;&quot;&gt;BW_PASSWORD: password&lt;/font&gt;" style="text;strokeColor=#001DBC;fillColor=#0050ef;align=left;verticalAlign=middle;spacingLeft=4;spacingRight=4;overflow=hidden;points=[[0,0.5],[1,0.5]];portConstraint=eastwest;rotatable=0;whiteSpace=wrap;html=1;fontColor=#ffffff;" vertex="1" parent="L9Lsdy9XiuTwqarGt-ca-36">
          <mxGeometry y="90" width="270" height="30" as="geometry" />
        </mxCell>
        <mxCell id="L9Lsdy9XiuTwqarGt-ca-41" value="&lt;font style=&quot;font-size: 15px;&quot;&gt;SVC_USER: user&lt;/font&gt;" style="text;strokeColor=#C73500;fillColor=#fa6800;align=left;verticalAlign=middle;spacingLeft=4;spacingRight=4;overflow=hidden;points=[[0,0.5],[1,0.5]];portConstraint=eastwest;rotatable=0;whiteSpace=wrap;html=1;fontColor=#000000;" vertex="1" parent="L9Lsdy9XiuTwqarGt-ca-36">
          <mxGeometry y="120" width="270" height="30" as="geometry" />
        </mxCell>
        <mxCell id="L9Lsdy9XiuTwqarGt-ca-39" value="&lt;font style=&quot;font-size: 15px;&quot;&gt;SVC_PASSWORD: pass&lt;/font&gt;" style="text;strokeColor=#C73500;fillColor=#fa6800;align=left;verticalAlign=middle;spacingLeft=4;spacingRight=4;overflow=hidden;points=[[0,0.5],[1,0.5]];portConstraint=eastwest;rotatable=0;whiteSpace=wrap;html=1;fontColor=#000000;" vertex="1" parent="L9Lsdy9XiuTwqarGt-ca-36">
          <mxGeometry y="150" width="270" height="30" as="geometry" />
        </mxCell>
        <mxCell id="L9Lsdy9XiuTwqarGt-ca-43" value="" style="aspect=fixed;sketch=0;html=1;dashed=0;whitespace=wrap;verticalLabelPosition=bottom;verticalAlign=top;fillColor=#2875E2;strokeColor=#ffffff;points=[[0.005,0.63,0],[0.1,0.2,0],[0.9,0.2,0],[0.5,0,0],[0.995,0.63,0],[0.72,0.99,0],[0.5,1,0],[0.28,0.99,0]];shape=mxgraph.kubernetes.icon2;kubernetesLabel=1;prIcon=secret" vertex="1" parent="1">
          <mxGeometry x="1080" y="360" width="50" height="48" as="geometry" />
        </mxCell>
      </root>
    </mxGraphModel>
  </diagram>
</mxfile>
